<?xml version="1.0" encoding="UTF-8"?>
<svg id="Layer_1" data-name="Layer 1" xmlns="http://www.w3.org/2000/svg" xmlns:xlink="http://www.w3.org/1999/xlink" viewBox="0 0 445.07 370.09">
  <defs>
    <style>
      .cls-1 {
        fill: url(#linear-gradient-2);
      }

      .cls-2 {
        fill: #7161ab;
      }

      .cls-3 {
        fill: #fff;
      }

      .cls-4 {
        fill: url(#linear-gradient-3);
      }

      .cls-5 {
        fill: url(#linear-gradient);
      }

      .cls-6 {
        fill: #41bdd3;
      }
    </style>
    <linearGradient id="linear-gradient" x1="171.75" y1="273.13" x2="60.79" y2="226.89" gradientUnits="userSpaceOnUse">
      <stop offset="0" stop-color="#a1b4c7"/>
      <stop offset="1" stop-color="#f4f6f6"/>
    </linearGradient>
    <linearGradient id="linear-gradient-2" x1="336.87" y1="265.85" x2="168.42" y2="158.08" gradientUnits="userSpaceOnUse">
      <stop offset="0" stop-color="#f47c28"/>
      <stop offset="1" stop-color="#fedf52"/>
    </linearGradient>
    <linearGradient id="linear-gradient-3" x1="354.81" y1="1100.75" x2="334.51" y2="1118.95" gradientTransform="translate(0 1206.11) scale(1 -1)" gradientUnits="userSpaceOnUse">
      <stop offset="0" stop-color="#fdbb3c"/>
      <stop offset="1" stop-color="#fee763"/>
    </linearGradient>
  </defs>
  <path class="cls-2" d="M293.85,68c1.69-18.34-25.13-12.33-37.21-11.92-13.49.34-26.98.49-40.47.45l-84.13.04c-14.35-.02-28.69-.21-43.07.09-7.63.16-11.61,3.48-11.99,11.34-1.1,23.3-2.31,46.45-5.05,69.65-.92,7.79-2.14,16.66-2.59,24.36l.12.83c.97,7.22-2.7,19.34-1,23.01,4.67,3.06,4.21.66,8.96,1.35,26.93,3.94,53.72,4.32,79.78,13.59,5.64,2,13.71,6.77,19.04,5.54,1.25-1.35,1.68-2.7,2.41-4.39-7.57-7.19-16.83-13.4-12.11-25.3l1.54-.44c13.27-11.03,49.26-5.65,62.15-13.89,13.05-12.21,16.18-43.14,30.07-53.32,12.29-8.99,20.46,11.61,24.32,20.08,1.52,3.04,6.06,12.46,7.8,14.42,4.22-19.89-.52-54.36,1.43-75.49ZM151.13,126.26c-7.58,6.94-3.56,10.21-10.65,17.22-8.5-3.54-4.7-10.51-9.97-15.61-2.64-2.56-11.59-4.38-13.77-8.95,1.67-6.69,9.81-4.01,13.86-7.56,4.14-3.64,4.22-9.31,8.21-14.91,5.61,1.95,6.41,7.97,9.54,14.41,5.14,2.86,10.72,3.57,14.67,8.28-.99,2.24-8.18,3.73-11.89,7.12ZM209.24,107.3c-1.38,3.21-2.79,6.41-4.24,9.58-5.86-4.19-1.14-8.27-16.12-14.36,9.83-3.04,10.02-2.96,14.21-12.36,3.21,1.43,4.22,4.94,5.84,8.31l9.36,4.09-9.05,4.74Z"/>
  <path class="cls-6" d="M208.41,232.45c-3.33,1.39-14.5.98-18.55.98-3-.33-12.99-.19-16.61-.22l-.95.09c-17.27,1.45-41.75-1.58-57.65.87-17.79,2.73-13.27,46.56-26.1,60.25-9.94.07-20.28.53-29.98.01-11.91-1.18-11.46-9.56-9.21-18.47,9.44-37.25,14.28-76.19,19.98-113.95l.12.83c.97,7.22-2.7,19.34-1,23.01,4.67,3.06,4.21.66,8.96,1.35,26.93,3.94,53.72,4.32,79.78,13.59,5.64,2,13.71,6.77,19.04,5.54,1.25-1.35,1.68-2.7,2.41-4.39-7.57-7.19-16.83-13.4-12.11-25.3l1.54-.44c-1.66,7.52-2,12.61,4.43,17.63,6.55,5.13,29.18,31.21,34.48,33.5l1.42,5.12Z"/>
  <path class="cls-5" d="M201.8,294.38c-11.03.08-22.07.04-33.1-.11-7.07.52-18.78.17-26.24.18l-53.91-.03c12.83-13.69,8.31-57.52,26.1-60.25,15.9-2.45,40.38.58,57.65-.87l.95-.09c3.62.03,13.61-.11,16.61.22,4.05,0,15.22.41,18.55-.98,2.71,16.69-11.23,46.5-6.61,61.93Z"/>
  <path class="cls-1" d="M365.73,188.54c-5.55,12.11-38.6,33.39-39.67,45.61-1.31,14.96,9.74,39.98,8.56,54.89-1.34,16.95-20.36,8.66-28.12,4.85-11.61-5.72-27.48-16.95-39.09-20.34-18.67,4.84-51.42,36.57-65.61,20.83-4.62-15.43,9.32-45.24,6.61-61.93l-1.42-5.12c-5.3-2.29-27.93-28.37-34.48-33.5-6.43-5.02-6.09-10.11-4.43-17.63,13.27-11.03,49.26-5.65,62.15-13.89,13.05-12.21,16.18-43.14,30.07-53.32,12.29-8.99,20.46,11.61,24.32,20.08,1.52,3.04,6.06,12.46,7.8,14.42,2.44,6.12,6.23,18.32,13.13,20.36,16.73,4.96,36.38,3.28,53.12,7.72,6.3,1.68,10.66,10.63,7.06,16.97Z"/>
  <path class="cls-3" d="M163.02,119.14c-.99,2.24-8.18,3.73-11.89,7.12-7.58,6.94-3.56,10.21-10.65,17.22-8.5-3.54-4.7-10.51-9.97-15.61-2.64-2.56-11.59-4.38-13.77-8.95,1.67-6.69,9.81-4.01,13.86-7.56,4.14-3.64,4.22-9.31,8.21-14.91,5.61,1.95,6.41,7.97,9.54,14.41,5.14,2.86,10.72,3.57,14.67,8.28Z"/>
  <path class="cls-3" d="M218.29,102.56l-9.05,4.74c-1.38,3.21-2.79,6.41-4.24,9.58-5.86-4.19-1.14-8.27-16.12-14.36,9.83-3.04,10.02-2.96,14.21-12.36,3.21,1.43,4.22,4.94,5.84,8.31l9.36,4.09Z"/>
  <path class="cls-4" d="M344.23,75.77c4.18,1.73,6.53,9.36,8.71,13.96,3.55,1.43,9.25,3.19,11.31,6.25-1.06,3.04-8.69,5.45-11.64,9.3-3.23,4.21-3.42,7.44-6.52,12.1-4.96-2.02-6.5-7.86-9.37-13.14-3.36-1.97-8.64-4.34-10.7-7.12.71-3.21,9.13-6.12,11.55-9.61,2.69-3.88,3.91-7.51,6.67-11.75Z"/>
</svg>